<?xml version="1.0" encoding="UTF-8" standalone="no"?>
<!-- Created with Inkscape (http://www.inkscape.org/) -->

<svg
   width="210mm"
   height="297mm"
   viewBox="0 0 210 297"
   version="1.1"
   id="svg5"
   xmlns="http://www.w3.org/2000/svg"
   xmlns:svg="http://www.w3.org/2000/svg">
  <defs
     id="defs2" />
  <g
     id="layer1">
    <g
       id="g13822">
      <circle
         style="fill:#ffffff;fill-opacity:1;stroke:none;stroke-width:1.465;stroke-linecap:round;stroke-miterlimit:4;stroke-dasharray:none;stroke-opacity:1;paint-order:stroke markers fill"
         id="path13211"
         cx="105"
         cy="148.5"
         r="91.13121" />
      <g
         id="g13307"
         transform="translate(7.0311652,11.630104)">
        <path
           style="fill:none;stroke:#000000;stroke-width:0.264583px;stroke-linecap:butt;stroke-linejoin:miter;stroke-opacity:1"
           d="M 97.898468,75.902294 C 75.26552,75.852003 61.608473,88.613709 58.243393,103.26843 47.97925,147.96816 97.89847,178.44784 97.89847,178.44784 c 0,0 48.5859,-30.56745 39.86162,-75.17942 C 134.88338,88.558256 121.75742,75.955309 97.898468,75.902294 Z"
           id="path864" />
        <g
           id="g12835">
          <path
             style="display:inline;fill:#000000;fill-opacity:1;stroke:none;stroke-width:2.576;stroke-linecap:round;stroke-linejoin:miter;stroke-miterlimit:4;stroke-dasharray:none;stroke-opacity:1;paint-order:stroke markers fill"
             d="m 71.73605,109.81973 c -4.627121,4.60659 -4.809767,9.99571 -2.506801,13.67154 7.02446,11.212 23.424902,7.24656 23.424902,7.24656 0,0 3.675554,-16.14637 -7.204421,-23.46704 -3.587524,-2.41389 -8.835925,-2.3072 -13.71368,2.54894 z"
             id="path864-0" />
          <path
             style="display:inline;fill:none;fill-opacity:1;stroke:#ffffff;stroke-width:1.94228;stroke-linecap:round;stroke-linejoin:miter;stroke-miterlimit:4;stroke-dasharray:none;stroke-opacity:1;paint-order:stroke markers fill"
             d="m 73.87288,112.00404 c -3.502805,3.45944 -3.641071,7.50655 -1.897689,10.26701 5.317631,8.41996 17.733032,5.442 17.733032,5.442 0,0 2.782455,-12.12555 -5.453864,-17.62321 -2.715814,-1.81278 -6.688939,-1.73265 -10.381479,1.9142 z"
             id="path864-0-0" />
        </g>
        <g
           id="g12831">
          <path
             style="display:inline;fill:#000000;fill-opacity:1;stroke:none;stroke-width:0.0763278px;stroke-linecap:butt;stroke-linejoin:miter;stroke-opacity:1"
             d="m 125.90887,109.81973 c 4.62712,4.60659 4.80977,9.99571 2.5068,13.67154 -7.02446,11.212 -23.4249,7.24656 -23.4249,7.24656 0,0 -3.67556,-16.14637 7.20442,-23.46704 3.58752,-2.41389 8.83592,-2.3072 13.71368,2.54894 z"
             id="path864-0-1" />
          <path
             style="display:inline;fill:none;fill-opacity:1;stroke:#ffffff;stroke-width:1.94228;stroke-linecap:round;stroke-linejoin:miter;stroke-miterlimit:4;stroke-dasharray:none;stroke-opacity:1;paint-order:stroke markers fill"
             d="m 123.66086,112.06869 c 3.50281,3.45944 3.64107,7.50655 1.89769,10.26701 -5.31763,8.41996 -17.73303,5.442 -17.73303,5.442 0,0 -2.78246,-12.12555 5.45386,-17.62321 2.71581,-1.81278 6.68894,-1.73265 10.38148,1.9142 z"
             id="path864-0-0-2" />
        </g>
        <text
           xml:space="preserve"
           style="font-style:normal;font-variant:normal;font-weight:normal;font-stretch:normal;font-size:34.253px;line-height:1.25;font-family:'Big Marker';-inkscape-font-specification:'Big Marker';text-align:center;text-anchor:middle;stroke-width:0.401402"
           x="81.007195"
           y="246.87961"
           id="text5921"
           transform="scale(1.2115132,0.82541403)"><tspan
             id="tspan5919"
             style="font-style:normal;font-variant:normal;font-weight:normal;font-stretch:normal;font-size:34.253px;font-family:'Big Marker';-inkscape-font-specification:'Big Marker';stroke-width:0.401402"
             x="81.007195"
             y="246.87961">SpaceBoy</tspan></text>
        <g
           id="g12827">
          <rect
             style="fill:#000000;fill-opacity:1;stroke:none;stroke-width:1;stroke-linecap:round"
             id="rect3620"
             width="8.0323982"
             height="27.469408"
             x="48.787422"
             y="103.26842"
             ry="4.0161991" />
          <rect
             style="fill:#000000;fill-opacity:1;stroke:none;stroke-width:1;stroke-linecap:round"
             id="rect3620-1"
             width="8.0323982"
             height="27.469408"
             x="138.96049"
             y="103.26842"
             ry="4.0161991" />
          <path
             style="fill:none;stroke:#000000;stroke-width:1.465;stroke-linecap:butt;stroke-linejoin:miter;stroke-miterlimit:4;stroke-dasharray:none;stroke-opacity:1"
             d="m 52.5757,103.26842 c 0,0 -3.771654,-34.189792 45.322767,-34.043748 49.094423,0.146042 45.224273,34.043748 45.224273,34.043748"
             id="path10860" />
        </g>
        <ellipse
           style="fill:#000000;fill-opacity:1;stroke:none;stroke-width:0.939197;stroke-linecap:round;stroke-miterlimit:4;stroke-dasharray:none;stroke-opacity:1;paint-order:stroke markers fill"
           id="path10964"
           cx="98.7985"
           cy="159.77173"
           rx="4.6003737"
           ry="1.0223053" />
      </g>
    </g>
  </g>
</svg>
