<?xml version="1.0" encoding="UTF-8" standalone="no"?>
<!-- Created with Inkscape (http://www.inkscape.org/) -->

<svg
   width="210mm"
   height="297mm"
   viewBox="0 0 210 297"
   version="1.1"
   id="svg5"
   inkscape:version="1.1.1 (3bf5ae0d25, 2021-09-20)"
   sodipodi:docname="spaceboy-logo.svg"
   xmlns:inkscape="http://www.inkscape.org/namespaces/inkscape"
   xmlns:sodipodi="http://sodipodi.sourceforge.net/DTD/sodipodi-0.dtd"
   xmlns="http://www.w3.org/2000/svg"
   xmlns:svg="http://www.w3.org/2000/svg">
  <sodipodi:namedview
     id="namedview7"
     pagecolor="#ffffff"
     bordercolor="#666666"
     borderopacity="1.0"
     inkscape:pageshadow="2"
     inkscape:pageopacity="0.0"
     inkscape:pagecheckerboard="0"
     inkscape:document-units="mm"
     showgrid="false"
     showguides="false"
     inkscape:guide-bbox="true"
     inkscape:zoom="1.2810466"
     inkscape:cx="235.74474"
     inkscape:cy="581.55574"
     inkscape:window-width="1920"
     inkscape:window-height="974"
     inkscape:window-x="-11"
     inkscape:window-y="-11"
     inkscape:window-maximized="1"
     inkscape:current-layer="g13822">
    <sodipodi:guide
       position="58.140124,193.73158"
       orientation="0,-1"
       id="guide999" />
    <sodipodi:guide
       position="146.18966,208.64362"
       orientation="0,-1"
       id="guide1191" />
    <sodipodi:guide
       position="51.944018,166.26217"
       orientation="0,-1"
       id="guide1193" />
    <sodipodi:guide
       position="97.898468,118.55216"
       orientation="1,0"
       id="guide1233" />
    <sodipodi:guide
       position="48.019818,149.11961"
       orientation="0,-1"
       id="guide1235" />
    <sodipodi:guide
       position="48.787421,193.73159"
       orientation="1,0"
       id="guide10482" />
    <sodipodi:guide
       position="146.99289,193.73159"
       orientation="1,0"
       id="guide10484" />
  </sodipodi:namedview>
  <defs
     id="defs2" />
  <g
     inkscape:label="Level"
     inkscape:groupmode="layer"
     id="layer1">
    <g
       id="g13822"
       inkscape:label="circle logo">
      <circle
         style="fill:#ffffff;fill-opacity:1;stroke:none;stroke-width:1.465;stroke-linecap:round;stroke-miterlimit:4;stroke-dasharray:none;stroke-opacity:1;paint-order:stroke markers fill"
         id="path13211"
         cx="105"
         cy="148.5"
         r="91.13121"
         inkscape:label="white circle" />
      <g
         id="g13307"
         inkscape:label="alien"
         transform="translate(7.0311652,11.630104)">
        <path
           style="fill:none;stroke:#000000;stroke-width:0.264583px;stroke-linecap:butt;stroke-linejoin:miter;stroke-opacity:1"
           d="M 97.898468,75.902294 C 75.26552,75.852003 61.608473,88.613709 58.243393,103.26843 47.97925,147.96816 97.89847,178.44784 97.89847,178.44784 c 0,0 48.5859,-30.56745 39.86162,-75.17942 C 134.88338,88.558256 121.75742,75.955309 97.898468,75.902294 Z"
           id="path864"
           sodipodi:nodetypes="sscss"
           inkscape:label="head" />
        <g
           id="g12835"
           inkscape:label="left eye">
          <path
             style="display:inline;fill:#000000;fill-opacity:1;stroke:none;stroke-width:2.576;stroke-linecap:round;stroke-linejoin:miter;stroke-miterlimit:4;stroke-dasharray:none;stroke-opacity:1;paint-order:stroke markers fill"
             d="m 71.73605,109.81973 c -4.627121,4.60659 -4.809767,9.99571 -2.506801,13.67154 7.02446,11.212 23.424902,7.24656 23.424902,7.24656 0,0 3.675554,-16.14637 -7.204421,-23.46704 -3.587524,-2.41389 -8.835925,-2.3072 -13.71368,2.54894 z"
             id="path864-0"
             sodipodi:nodetypes="sscss"
             inkscape:label="lx black eye" />
          <path
             style="display:inline;fill:none;fill-opacity:1;stroke:#ffffff;stroke-width:1.94228;stroke-linecap:round;stroke-linejoin:miter;stroke-miterlimit:4;stroke-dasharray:none;stroke-opacity:1;paint-order:stroke markers fill"
             d="m 73.87288,112.00404 c -3.502805,3.45944 -3.641071,7.50655 -1.897689,10.26701 5.317631,8.41996 17.733032,5.442 17.733032,5.442 0,0 2.782455,-12.12555 -5.453864,-17.62321 -2.715814,-1.81278 -6.688939,-1.73265 -10.381479,1.9142 z"
             id="path864-0-0"
             sodipodi:nodetypes="sscss"
             inkscape:label="lx eye white track" />
        </g>
        <g
           id="g12831"
           inkscape:label="right eye">
          <path
             style="display:inline;fill:#000000;fill-opacity:1;stroke:none;stroke-width:0.0763278px;stroke-linecap:butt;stroke-linejoin:miter;stroke-opacity:1"
             d="m 125.90887,109.81973 c 4.62712,4.60659 4.80977,9.99571 2.5068,13.67154 -7.02446,11.212 -23.4249,7.24656 -23.4249,7.24656 0,0 -3.67556,-16.14637 7.20442,-23.46704 3.58752,-2.41389 8.83592,-2.3072 13.71368,2.54894 z"
             id="path864-0-1"
             sodipodi:nodetypes="sscss"
             inkscape:label="rx black eye" />
          <path
             style="display:inline;fill:none;fill-opacity:1;stroke:#ffffff;stroke-width:1.94228;stroke-linecap:round;stroke-linejoin:miter;stroke-miterlimit:4;stroke-dasharray:none;stroke-opacity:1;paint-order:stroke markers fill"
             d="m 123.66086,112.06869 c 3.50281,3.45944 3.64107,7.50655 1.89769,10.26701 -5.31763,8.41996 -17.73303,5.442 -17.73303,5.442 0,0 -2.78246,-12.12555 5.45386,-17.62321 2.71581,-1.81278 6.68894,-1.73265 10.38148,1.9142 z"
             id="path864-0-0-2"
             sodipodi:nodetypes="sscss"
             inkscape:label="rx eye white track" />
        </g>
        <g
           aria-label="SpaceBoy"
           transform="scale(1.2115132,0.82541403)"
           id="text5921"
           style="font-size:34.253px;line-height:1.25;font-family:'Big Marker';-inkscape-font-specification:'Big Marker';text-align:center;text-anchor:middle;stroke-width:0.401402"
           inkscape:label="text">
          <path
             d="m 45.692492,224.13562 h 0.274024 q 2.637481,0.41103 2.637481,1.02759 -0.06851,0.89058 -0.06851,1.02759 0,0.89058 0.239771,1.54138 -0.171265,1.02759 -0.582301,1.02759 -0.445289,0 -1.472879,-0.75356 h -1.198855 q -3.322541,1.54138 -3.322541,4.28162 0,2.02093 4.350131,3.08277 3.76783,1.47288 3.76783,2.63748 0.411036,0 0.856325,3.08277 0.102759,0 0.171265,0.27403 0,0.0685 -0.06851,0.0685 0.171265,1.13035 0.171265,1.64415 0,0.75356 -1.71265,3.32254 -1.71265,1.19885 -3.596565,1.19885 -0.411036,0 -1.130349,0.10276 -3.459553,-0.41104 -3.836336,-0.95908 l -0.445289,-0.68506 q 0.171265,-0.5138 0.171265,-0.85633 l -0.171265,-0.5823 q 0.513795,-1.02759 0.513795,-1.37012 h 0.445289 q 1.02759,0.5823 2.74024,0.5823 v -0.0685 l 0.171265,0.0685 h 1.02759 q 2.568975,0 3.836336,-2.46621 v -0.5138 q 0,-0.78782 -5.994275,-2.74024 -2.911505,-1.91817 -2.911505,-5.92577 0,-4.11036 2.226445,-6.67933 1.609891,-1.37012 2.911505,-1.37012 z"
             id="path2539" />
          <path
             d="m 55.317546,227.9377 q 2.603228,0 3.322541,2.39771 0.68506,3.35679 0.68506,5.99427 0,4.35014 -5.13795,5.48048 h -0.411036 q -0.102759,1.6099 -0.102759,2.32921 v 1.19885 q 0,0.20552 0.102759,0.34253 -0.171265,0.44529 -0.171265,0.5823 0.171265,0.82208 0.171265,1.30162 v 0.23977 q 0,0.85632 -0.959084,0.85632 -0.479542,-0.23977 -0.685059,-1.26736 0,-0.17126 0.102759,-0.17126 -0.102759,-1.30162 -0.102759,-1.88392 0,-2.39771 0.171264,-3.93909 l -0.06851,-0.17127 q 0,-0.27402 0.06851,-0.44529 0,-4.93243 -0.856324,-9.24831 0.274024,-0.54804 0.274024,-0.92483 v -0.27402 q 0,-0.0685 -0.102759,-0.0685 0,-0.27402 1.472878,-1.30161 0.890578,-1.02759 2.226445,-1.02759 z m -1.986674,5.48048 q 0.205518,3.49381 0.445289,4.45289 4.007601,-1.02759 4.007601,-3.25404 0,-2.74024 -1.71265,-2.74024 h -0.171265 q -1.71265,0 -2.568975,1.54139 z"
             id="path2541" />
          <path
             d="m 64.394574,228.75977 q 1.746903,0 2.74024,2.91151 0.582301,4.11036 1.267361,5.48048 1.02759,1.64414 1.472879,1.64414 0,-0.17126 0.171265,-0.17126 h 0.06851 q 0.513795,0.20551 0.959084,1.19885 -0.102759,0.44529 -0.102759,0.68506 0.445289,2.08943 0.445289,2.29495 -0.34253,0.17127 -0.34253,0.27403 -2.157939,0 -4.281625,-4.45289 -1.541385,2.80874 -2.911505,2.80874 0,0.17127 -0.445289,0.17127 -2.877252,0 -4.007601,-4.35013 0,-0.23978 -0.102759,-0.68506 l 0.102759,-0.44529 q 0,-0.0685 -0.102759,-0.23977 0,-4.79542 4.281625,-7.12463 z m -3.254035,7.70693 q 0.959084,1.13035 1.541385,1.13035 2.192192,0 2.808746,-3.18553 v -0.41104 q 0,-0.68506 -0.856325,-1.30161 -1.644144,0 -3.322541,2.843 -0.171265,0.34253 -0.171265,0.92483 z"
             id="path2543" />
          <path
             d="m 75.869287,228.24598 h 0.274024 q 1.37012,0 2.123686,1.54138 l -0.06851,1.02759 v 0.61656 q 0,0.34253 0.06851,0.92483 -0.137012,0.78782 -0.239771,0.78782 -0.787819,0 -1.301614,-0.78782 -0.479542,-0.0685 -0.68506,-0.0685 -2.466216,0.78782 -2.911505,4.79542 v 0.23977 q 0,1.23311 2.157939,2.15794 0.308277,0.17127 0.68506,0.17127 1.267361,0 3.151276,-0.95909 0.822072,0 0.959084,3.52806 0,0.61655 -3.4253,1.37012 -1.986674,0 -4.213119,-2.22644 -0.650807,-1.6099 -1.02759,-3.18553 l 0.102759,-0.5823 v -1.13035 l 0.06851,-1.02759 h -0.06851 q 0.582301,-3.15128 1.267361,-4.35013 1.678397,-2.843 3.08277,-2.843 z"
             id="path2545" />
          <path
             d="m 85.323057,227.83494 h 0.513795 q 2.089432,0 2.808745,3.32254 l 0.34253,3.25404 q -0.205518,1.88391 -0.411036,1.88391 h -1.198855 q -4.35013,0.95909 -4.624154,0.95909 h -0.856325 v 0.17126 q 0,0.71931 1.541385,1.78116 1.472879,0.78782 2.911505,0.95908 0.753565,0 2.466215,-0.51379 l 0.616554,0.75356 -0.102759,0.61656 v 0.0685 q 0,0.71931 0.274024,1.13035 l -0.102759,0.17127 q 0,0.41103 0.171265,0.41103 0,0.95909 -1.438626,0.95909 0,0.23977 -0.959084,0.23977 -3.733576,0 -6.234045,-2.91151 -0.959084,-1.84966 -0.959084,-3.59656 l 0.102759,-0.75357 -0.102759,-0.51379 q 0.34253,-3.52806 1.37012,-5.41198 1.781156,-2.98001 3.870589,-2.98001 z m -2.05518,5.20646 q 0.06851,0 0.06851,0.10276 l 3.528058,-0.68506 v -0.17127 q 0,-0.13701 -0.342529,-0.34253 h -0.959084 q -1.541385,0 -2.294951,1.0961 z"
             id="path2547" />
          <path
             d="m 94.742589,223.75883 q 2.466216,0.41104 3.4253,1.43863 1.061843,0.89058 1.609891,3.01426 0.34253,0.68506 0.68506,3.25404 0,1.13035 -0.753566,3.15127 2.740236,2.87726 3.425296,5.99428 0.13702,0 0.41104,1.64414 v 0.0685 q 0,2.67173 -3.665071,5.06944 -1.746903,0.68506 -2.911505,0.68506 -0.616554,-0.17126 -1.02759,-0.17126 H 94.2973 l -0.239771,0.17126 h -0.274024 q -1.952421,-0.71931 -1.952421,-1.88391 -0.171265,0 -0.274024,-1.47288 l 0.102759,-0.41104 H 91.55706 l 0.102759,-0.17126 q 0,-0.27403 -0.102759,-0.44529 l 0.102759,-0.5823 q -0.102759,-2.43196 -0.102759,-4.21312 0,-0.27402 -0.06851,-0.75357 0.06851,-0.13701 0.06851,-0.51379 h -0.06851 q 0,-0.10276 0.06851,-0.10276 l -0.06851,-1.02759 v -2.91151 q 0,-0.34253 -0.102759,-0.68506 0.102759,-0.30827 0.102759,-0.68506 v -1.19885 q 0,-0.34253 0.06851,-0.92483 l -0.06851,-0.17127 0.06851,-0.51379 v -0.17127 l -0.06851,-1.02759 h -0.68506 q -0.856325,-0.37678 -1.130349,-0.78781 l 0.171265,-1.54139 h -0.06851 q 0.376783,-1.0961 0.68506,-1.26736 2.431963,-0.85633 4.281625,-0.85633 z m -1.541385,4.11036 q 0.06851,3.73358 0.06851,5.13795 -0.06851,1.06185 -0.06851,1.0961 0.06851,0.34253 0.513795,0.34253 0.822072,0 3.151276,-1.43863 1.644144,-1.57563 1.644144,-3.25403 v -0.27403 q -0.959084,-2.05517 -2.329204,-2.05517 0,-0.13702 -0.411036,-0.17127 h -1.71265 q -0.822072,0 -0.856325,0.61655 z m 0.753566,10.51567 q -0.411036,-0.23977 -0.68506,-0.23977 0.102759,2.60323 0.102759,3.83634 v 0.34253 q 0,0.37678 0.06851,0.95908 -0.06851,0.17127 -0.06851,0.23977 0,0.85633 0.753566,0.85633 0.308277,0 2.157939,0.17126 2.774493,0 4.863926,-3.15127 0,-0.44529 0.27402,-0.78782 -0.5823,-1.81541 -2.397706,-2.91151 -1.061843,-0.0685 -1.130349,-0.0685 -1.71265,0 -3.939095,0.75356 z"
             id="path2549" />
          <path
             d="m 108.34099,229.06805 q 0.78782,0 2.22644,1.60989 1.13035,1.78116 1.13035,5.06944 h 0.0685 l -0.0685,0.17127 0.0685,0.51379 q -0.47955,3.21979 -1.88392,5.13795 -1.09609,1.19886 -2.22644,1.19886 h -0.34253 q -2.67174,0 -3.59657,-3.69933 -0.17126,-0.6508 -0.17126,-1.60989 v -0.17126 q 0,-3.28829 1.88391,-6.67934 1.0961,-1.54138 2.91151,-1.54138 z m -3.08277,8.28922 q 0.51379,1.47288 1.64414,1.47288 h 0.23977 q 2.12369,0 2.91151,-3.69932 v -0.0685 q 0,-1.67839 -2.05518,-2.15794 -0.99334,0 -2.05518,1.64415 -0.68506,1.43862 -0.68506,2.80874 z"
             id="path2551" />
          <path
             d="m 120.67206,228.17747 q 0.61655,0.20552 0.61655,1.02759 l -0.10275,0.41104 q 0.10275,1.47288 0.27402,1.47288 0,0.89057 -1.30161,2.56897 -1.26737,1.88392 -2.22645,6.06278 -1.19885,4.41864 -2.05518,7.98095 l -0.41104,0.0685 h -0.10275 q -0.92484,0 -0.92484,-1.54139 0,-0.37678 -0.17126,-0.75356 0.82207,-1.6099 1.71265,-6.16554 v -0.10276 q -2.53472,-4.89818 -3.59656,-6.67934 -0.30828,0 -0.61656,-1.54138 0.34253,-0.0685 0.34253,-0.5138 0,-0.0685 -0.0685,-0.23977 0.10275,-0.68506 0.92483,-1.64414 0.5823,0 1.98667,3.59656 1.33587,2.74024 1.95242,3.4253 h 0.17127 q 0.6508,-3.08277 2.84299,-6.50807 0.5138,-0.92483 0.75357,-0.92483 z"
             id="path2553" />
        </g>
        <g
           id="g12827"
           inkscape:label="headphone">
          <rect
             style="fill:#000000;fill-opacity:1;stroke:none;stroke-width:1;stroke-linecap:round"
             id="rect3620"
             width="8.0323982"
             height="27.469408"
             x="48.787422"
             y="103.26842"
             ry="4.0161991"
             inkscape:label="lx headphone" />
          <rect
             style="fill:#000000;fill-opacity:1;stroke:none;stroke-width:1;stroke-linecap:round"
             id="rect3620-1"
             width="8.0323982"
             height="27.469408"
             x="138.96049"
             y="103.26842"
             ry="4.0161991"
             inkscape:label="rx headphone" />
          <path
             style="fill:none;stroke:#000000;stroke-width:1.465;stroke-linecap:butt;stroke-linejoin:miter;stroke-miterlimit:4;stroke-dasharray:none;stroke-opacity:1"
             d="m 52.5757,103.26842 c 0,0 -3.771654,-34.189792 45.322767,-34.043748 49.094423,0.146042 45.224273,34.043748 45.224273,34.043748"
             id="path10860"
             inkscape:label="headphone arc" />
        </g>
        <ellipse
           style="fill:#000000;fill-opacity:1;stroke:none;stroke-width:0.939197;stroke-linecap:round;stroke-miterlimit:4;stroke-dasharray:none;stroke-opacity:1;paint-order:stroke markers fill"
           id="path10964"
           cx="98.7985"
           cy="159.77173"
           rx="4.6003737"
           ry="1.0223053"
           inkscape:label="mouth" />
      </g>
    </g>
  </g>
</svg>
